<svg xmlns="http://www.w3.org/2000/svg" viewBox="0 0 362.003 383.407" fill="none">
  <!-- Adapted from Wikimedia Commons: WikiProject Scouting fleur-de-lis trefoil.svg -->
  <path d="M114.768 275.881c-56.652 44.85-130.087 5.996-101.731-63.563-35.227-48.454 10.813-131.326 86.818-87.089-31.226-25.133-43.406-164.536 81.052-112.818 114.057-43.324 115.733 60.262 80.614 115.77 62.602-47.443 125.051 22.176 88.766 85.972 34.967 100.996-88.49 84.584-97.402 65.291" stroke="#087840" stroke-width="14" stroke-linecap="round" stroke-miterlimit="10"/>
  <path d="M158.38 255.563c-3.87-29.826-8.22-63.026-30.186-84.984-5.73-29.072-13.282-60.967.778-92.665 13.439-30.299 29.977-44.003 52.089-63.179 27.545 19.333 46.851 43.706 57.738 75.974 7.999 25.617 4.088 48.572.061 78.561-24.846 23.13-29.433 59.663-35.576 85.985-17.273.567-23.346.478-44.904.308Z" fill="#E7C23D" stroke="#EEC94B" stroke-width="5"/>
  <path d="M84.639 156.504c-69.627-.233-96.465 110.752-3.309 111.174 6.116-49.188 53.029-26.642 51.312-12.991 9.397.063 17.539.08 25.673.193-3.803-29.189-7.745-64.086-30.096-84.316-11.102-10.046-28.454-13.702-43.58-14.06Z" fill="#E7C23D" stroke="#EEC94B" stroke-width="5"/>
  <path d="M283.628 151.718c70.131-3.508 86.648 106.218 3.309 111.174-6.115-49.188-54.287-21.351-52.57-7.7-9.396.063-21.566.332-29.699.445 3.803-29.189 13.029-69.628 35.381-89.858 11.1-10.048 28.454-13.703 43.579-14.061Z" fill="#E7C23D" stroke="#EEC94B" stroke-width="5"/>
  <path d="m76.312 213.017-2.874 1.91 1.278 3.229-2.693-2.17-2.646 2.219 1.21-3.251-2.914-1.856 3.44.16.846-3.366.916 3.351 3.437-.226Z" fill="#00D455" stroke="#087840" stroke-width="3.435" stroke-linecap="round"/>
  <path d="m298.435 208.028-2.873 1.91 1.277 3.229-2.692-2.17-2.646 2.219 1.209-3.251-2.914-1.856 3.441.161.846-3.367.916 3.351 3.436-.225Z" fill="#00D455" stroke="#087840" stroke-width="3.435" stroke-linecap="round"/>
  <path d="M137.237 274.206c-2.504 22.701-18.4 27.854-34.422 38.484 4.299 4.929 27.95 23.094 33.071 27.01-3.979 5.259-3.104 3.994-10.424 11.526 12.413 9.718 26.241 17.764 40.229 26.1 13.395 6.61 20.998 9.171 40.422-2.699 9.659-5.903 29.45-18.65 37.937-26.283-5.066-4.108-6.094-4.903-10.289-11.281 5.383-5.959 22.481-18.158 32.028-26.333-17.031-7.727-29.897-19.296-37.216-36.588-17.326-.204-71.984-.023-91.336.064Z" fill="#E7C23D" stroke="#EFCA4C" stroke-width="5"/>
  <rect x="132.706" y="254.988" width="101.624" height="19.235" fill="#F0CB37" stroke="#EEC94B" stroke-width="1.003" stroke-linecap="round" stroke-miterlimit="10"/>
  <path d="M184.026 382.02c.358-90.63-3.266-357.278-3.12-367.444" stroke="#087840" stroke-width="6" stroke-linecap="round"/>
</svg>
