<svg xmlns="http://www.w3.org/2000/svg" viewBox="0 0 64 64" fill="none">
  <rect x="4" y="4" width="56" height="56" rx="16" fill="#182f14"/>
  <path d="M32 10C28.7 14.1 26 19.1 26 25C26 30.4 28.2 34.7 32 38.7C35.8 34.7 38 30.4 38 25C38 19.1 35.3 14.1 32 10Z" fill="#ddb945"/>
  <path d="M29.2 37.8C22.4 35.1 18.2 30.9 16.4 24.8C15.1 20 15.9 15.7 18.8 12.4C20 18 23.6 22.7 29.2 25.9C24.7 28.4 22.2 31.2 21.2 34.5C23.8 34.7 26.5 35.7 29.2 37.8Z" fill="#ddb945"/>
  <path d="M34.8 37.8C41.6 35.1 45.8 30.9 47.6 24.8C48.9 20 48.1 15.7 45.2 12.4C44 18 40.4 22.7 34.8 25.9C39.3 28.4 41.8 31.2 42.8 34.5C40.2 34.7 37.5 35.7 34.8 37.8Z" fill="#ddb945"/>
  <path d="M32 38.1C30.7 41.6 29 44.5 26.7 47.3C24.8 49.7 22.1 51.5 18.2 52.7C22.7 53.1 27.3 52.2 32 49.9C36.7 52.2 41.3 53.1 45.8 52.7C41.9 51.5 39.2 49.7 37.3 47.3C35 44.5 33.3 41.6 32 38.1Z" fill="#ddb945"/>
  <path d="M15.7 41.6C19.8 39.2 23.7 38.8 27.9 40.2C24.4 42.9 20.8 44.7 17.4 45.7C14.6 46.4 12.1 46.3 10.2 45.5C11.5 43.9 13.4 42.6 15.7 41.6Z" fill="#ddb945"/>
  <path d="M48.3 41.6C44.2 39.2 40.3 38.8 36.1 40.2C39.6 42.9 43.2 44.7 46.6 45.7C49.4 46.4 51.9 46.3 53.8 45.5C52.5 43.9 50.6 42.6 48.3 41.6Z" fill="#ddb945"/>
  <path d="M27.4 41.3C28.8 42.3 30.2 42.9 32 43.2C33.8 42.9 35.2 42.3 36.6 41.3C35.8 43.7 34.5 45.6 32 47.1C29.5 45.6 28.2 43.7 27.4 41.3Z" fill="#fdfcf8"/>
</svg>
